<svg width="141" height="91" viewBox="0 0 141 91" fill="none" xmlns="http://www.w3.org/2000/svg">
<path d="M87.027 61.6568C105.863 51.0892 129.695 57.6326 140.494 76.3369L124.242 85.7198C105.32 96.6446 81.1189 90.0249 70.3916 70.9898L87.027 61.6568Z" fill="white"/>
<path d="M80.1361 54.2486C90.8965 35.6112 114.728 29.2255 133.365 39.9858L123.624 56.8588C112.863 75.4962 89.0319 81.8818 70.3945 71.1215L80.1361 54.2486Z" fill="white" fill-opacity="0.8"/>
<path d="M69.5518 52.443C69.5518 29.8395 87.8756 11.5156 110.479 11.5156V30.615C110.479 53.2186 92.1553 71.5424 69.5518 71.5424V52.443Z" fill="white" fill-opacity="0.8"/>
<path d="M59.896 53.2214C49.1357 34.584 55.5213 10.7525 74.1587 -0.0078125L83.9003 16.8652C94.6606 35.5025 88.275 59.3341 69.6376 70.0944L59.896 53.2214Z" fill="white" fill-opacity="0.8"/>
<path d="M69.5524 49.7145C69.5524 28.6179 52.4502 11.5156 31.3535 11.5156V33.3435C31.3535 54.4402 48.4557 71.5424 69.5524 71.5424V49.7145Z" fill="white" fill-opacity="0.8"/>
<path d="M61.3298 54.2486C50.5695 35.6112 26.738 29.2255 8.10059 39.9858L17.8422 56.8588C28.6025 75.4962 52.434 81.8818 71.0714 71.1215L61.3298 54.2486Z" fill="white" fill-opacity="0.8"/>
<path d="M54.4385 61.6568C35.6025 51.0892 11.7706 57.6326 0.97168 76.3369L17.2233 85.7198C36.1457 96.6446 60.3465 90.0249 71.0739 70.9898L54.4385 61.6568Z" fill="white"/>
</svg>
